<?xml version="1.0" encoding="UTF-8" standalone="no"?>
<svg
   xmlns:dc="http://purl.org/dc/elements/1.1/"
   xmlns:cc="http://creativecommons.org/ns#"
   xmlns:rdf="http://www.w3.org/1999/02/22-rdf-syntax-ns#"
   xmlns:svg="http://www.w3.org/2000/svg"
   xmlns="http://www.w3.org/2000/svg"
   xmlns:sodipodi="http://sodipodi.sourceforge.net/DTD/sodipodi-0.dtd"
   xmlns:inkscape="http://www.inkscape.org/namespaces/inkscape"
   width="1604"
   height="244"
   version="1.1"
   id="svg328"
   sodipodi:docname="maze.svg"
   inkscape:version="0.92.3 (2405546, 2018-03-11)">
  <metadata
     id="metadata334">
    <rdf:RDF>
      <cc:Work
         rdf:about="">
        <dc:format>image/svg+xml</dc:format>
        <dc:type
           rdf:resource="http://purl.org/dc/dcmitype/StillImage" />
      </cc:Work>
    </rdf:RDF>
  </metadata>
  <defs
     id="defs332" />
  <sodipodi:namedview
     pagecolor="#ffffff"
     bordercolor="#666666"
     borderopacity="1"
     objecttolerance="10"
     gridtolerance="10"
     guidetolerance="10"
     inkscape:pageopacity="0"
     inkscape:pageshadow="2"
     inkscape:window-width="1853"
     inkscape:window-height="1017"
     id="namedview330"
     showgrid="false"
     inkscape:zoom="0.66654953"
     inkscape:cx="811.13928"
     inkscape:cy="0.62000407"
     inkscape:window-x="67"
     inkscape:window-y="27"
     inkscape:window-maximized="1"
     inkscape:current-layer="svg328" />
  <title
     id="title2">100 by 15 orthogonal maze</title>
  <desc
     id="desc4">100 by 15 orthogonal maze generated by The Maze Generator Website (http://www.mazegenerator.net/).</desc>
  <g
     id="g326"
     style="fill:none;stroke:#d72823;stroke-width:2;stroke-linecap:square;stroke-linejoin:round;stroke-opacity:1">
    <polyline
       points="794,2 794,10 762,10 762,26 778,26 778,42 730,42 730,26 698,26 698,42 666,42 666,10 570,10 570,26 538,26 538,58 554,58 554,122 538,122 538,74 522,74 522,58 506,58 506,90 474,90 474,154 522,154 522,138 570,138 570,74 602,74 602,90 586,90 586,138 618,138 618,122 602,122 602,106 618,106 618,74 634,74 634,90 666,90 666,122 698,122 698,154 714,154 714,122 730,122 730,106 762,106 762,90 730,90 730,74 682,74 682,58 746,58 746,74 762,74 762,58 794,58 794,74 778,74 778,106 794,106 794,154 730,154 730,170 746,170 746,202 794,202 794,218 810,218 810,202 826,202 826,218 842,218 842,234 810,234 810,242"
       id="polyline6"
       style="stroke:#d72823;stroke-opacity:1" />
    <polyline
       points="730,90 682,90 682,106 714,106"
       id="polyline8"
       style="stroke:#d72823;stroke-opacity:1" />
    <polyline
       points="746,106 746,138 730,138"
       id="polyline10"
       style="stroke:#d72823;stroke-opacity:1" />
    <polyline
       points="746,122 762,122 762,138 778,138 778,122"
       id="polyline12"
       style="stroke:#d72823;stroke-opacity:1" />
    <polyline
       points="666,122 650,122 650,138 682,138 682,186 666,186 666,218 682,218 682,202 698,202 698,218 714,218 714,186 698,186 698,170 714,170"
       id="polyline14"
       style="stroke:#d72823;stroke-opacity:1" />
    <polyline
       points="714,186 730,186 730,234 746,234 746,218 762,218 762,234 794,234"
       id="polyline16"
       style="stroke:#d72823;stroke-opacity:1" />
    <polyline
       points="778,234 778,218"
       id="polyline18"
       style="stroke:#d72823;stroke-opacity:1" />
    <polyline
       points="666,186 666,170 650,170 650,154 666,154"
       id="polyline20"
       style="stroke:#d72823;stroke-opacity:1" />
    <polyline
       points="634,90 634,106 650,106"
       id="polyline22"
       style="stroke:#d72823;stroke-opacity:1" />
    <polyline
       points="570,138 570,154 554,154 554,170 586,170 586,202 570,202 570,234 522,234 522,218 506,218 506,234 474,234 474,218 458,218 458,234 314,234 314,218 330,218"
       id="polyline24"
       style="stroke:#d72823;stroke-opacity:1" />
    <polyline
       points="378,234 378,218 426,218 426,186 410,186 410,202 378,202 378,154 346,154 346,186 330,186 330,170 298,170 298,138 282,138 282,202 266,202 266,234 298,234 298,218 282,218"
       id="polyline26"
       style="stroke:#d72823;stroke-opacity:1" />
    <polyline
       points="266,218 250,218 250,202 202,202 202,186 186,186 186,202"
       id="polyline28"
       style="stroke:#d72823;stroke-opacity:1" />
    <polyline
       points="186,186 186,154 154,154 154,138 186,138 186,122 138,122 138,106 122,106 122,90 138,90 138,42 90,42 90,26 74,26 74,58 42,58"
       id="polyline30"
       style="stroke:#d72823;stroke-opacity:1" />
    <polyline
       points="58,58 58,74 74,74 74,106 58,106 58,90 42,90 42,74 26,74 26,42 58,42 58,10 90,10"
       id="polyline32"
       style="stroke:#d72823;stroke-opacity:1" />
    <polyline
       points="58,26 42,26 42,10 10,10"
       id="polyline34"
       style="stroke:#d72823;stroke-opacity:1" />
    <polyline
       points="26,10 26,26 10,26 10,138 58,138 58,122 90,122 90,138 106,138 106,122 122,122 122,138 138,138 138,154 122,154 122,170 138,170 138,202"
       id="polyline36"
       style="stroke:#d72823;stroke-opacity:1" />
    <polyline
       points="138,186 122,186 122,218 138,218 138,234 154,234 154,218 202,218 202,234 218,234"
       id="polyline38"
       style="stroke:#d72823;stroke-opacity:1" />
    <polyline
       points="202,234 170,234"
       id="polyline40"
       style="stroke:#d72823;stroke-opacity:1" />
    <polyline
       points="138,234 106,234 106,186 90,186 90,170 106,170 106,154 58,154 58,170 26,170 26,154 10,154 10,202 42,202 42,186 26,186"
       id="polyline42"
       style="stroke:#d72823;stroke-opacity:1" />
    <polyline
       points="42,186 74,186 74,170"
       id="polyline44"
       style="stroke:#d72823;stroke-opacity:1" />
    <polyline
       points="26,202 26,218 10,218 10,234 58,234"
       id="polyline46"
       style="stroke:#d72823;stroke-opacity:1" />
    <polyline
       points="42,234 42,218 58,218 58,202 90,202 90,234 74,234 74,218"
       id="polyline48"
       style="stroke:#d72823;stroke-opacity:1" />
    <polyline
       points="90,138 74,138"
       id="polyline50"
       style="stroke:#d72823;stroke-opacity:1" />
    <polyline
       points="42,138 42,154"
       id="polyline52"
       style="stroke:#d72823;stroke-opacity:1" />
    <polyline
       points="42,138 42,106"
       id="polyline54"
       style="stroke:#d72823;stroke-opacity:1" />
    <polyline
       points="42,122 26,122 26,90"
       id="polyline56"
       style="stroke:#d72823;stroke-opacity:1" />
    <polyline
       points="106,42 106,10 122,10 122,26 154,26 154,10 138,10"
       id="polyline58"
       style="stroke:#d72823;stroke-opacity:1" />
    <polyline
       points="106,42 106,74 122,74 122,58"
       id="polyline60"
       style="stroke:#d72823;stroke-opacity:1" />
    <polyline
       points="106,58 90,58 90,106 106,106 106,90"
       id="polyline62"
       style="stroke:#d72823;stroke-opacity:1" />
    <polyline
       points="138,106 202,106 202,170 266,170 266,154 250,154 250,138 266,138"
       id="polyline64"
       style="stroke:#d72823;stroke-opacity:1" />
    <polyline
       points="186,170 170,170 170,202 154,202 154,170"
       id="polyline66"
       style="stroke:#d72823;stroke-opacity:1" />
    <polyline
       points="218,202 218,218 234,218 234,234 250,234"
       id="polyline68"
       style="stroke:#d72823;stroke-opacity:1" />
    <polyline
       points="266,202 266,186 218,186"
       id="polyline70"
       style="stroke:#d72823;stroke-opacity:1" />
    <polyline
       points="298,138 314,138 314,154 330,154 330,122 346,122 346,90 314,90 314,106 330,106"
       id="polyline72"
       style="stroke:#d72823;stroke-opacity:1" />
    <polyline
       points="314,106 282,106"
       id="polyline74"
       style="stroke:#d72823;stroke-opacity:1" />
    <polyline
       points="314,90 314,74 346,74"
       id="polyline76"
       style="stroke:#d72823;stroke-opacity:1" />
    <polyline
       points="346,106 378,106 378,90 362,90 362,74 378,74 378,58 314,58 314,10 298,10 298,42 234,42 234,58 218,58 218,10 170,10 170,58 154,58 154,74 186,74 186,42 202,42 202,90 218,90 218,74 266,74 266,90 298,90 298,74 282,74 282,58 250,58"
       id="polyline78"
       style="stroke:#d72823;stroke-opacity:1" />
    <polyline
       points="282,58 298,58"
       id="polyline80"
       style="stroke:#d72823;stroke-opacity:1" />
    <polyline
       points="234,74 234,106 218,106"
       id="polyline82"
       style="stroke:#d72823;stroke-opacity:1" />
    <polyline
       points="234,90 250,90 250,106 266,106 266,122 314,122"
       id="polyline84"
       style="stroke:#d72823;stroke-opacity:1" />
    <polyline
       points="266,122 218,122 218,154 234,154 234,138"
       id="polyline86"
       style="stroke:#d72823;stroke-opacity:1" />
    <polyline
       points="186,74 186,90 154,90"
       id="polyline88"
       style="stroke:#d72823;stroke-opacity:1" />
    <polyline
       points="154,58 154,42"
       id="polyline90"
       style="stroke:#d72823;stroke-opacity:1" />
    <polyline
       points="202,10 202,26 186,26"
       id="polyline92"
       style="stroke:#d72823;stroke-opacity:1" />
    <polyline
       points="218,10 234,10 234,26 250,26 250,10 282,10 282,26 266,26"
       id="polyline94"
       style="stroke:#d72823;stroke-opacity:1" />
    <polyline
       points="314,10 330,10 330,42 346,42 346,10 362,10 362,26 378,26 378,10 394,10"
       id="polyline96"
       style="stroke:#d72823;stroke-opacity:1" />
    <polyline
       points="378,26 378,42 362,42"
       id="polyline98"
       style="stroke:#d72823;stroke-opacity:1" />
    <polyline
       points="362,106 362,138 378,138 378,122 394,122 394,90 410,90 410,138 458,138 458,170 442,170 442,218"
       id="polyline100"
       style="stroke:#d72823;stroke-opacity:1" />
    <polyline
       points="458,154 426,154 426,170 394,170 394,186"
       id="polyline102"
       style="stroke:#d72823;stroke-opacity:1" />
    <polyline
       points="394,170 394,154 410,154"
       id="polyline104"
       style="stroke:#d72823;stroke-opacity:1" />
    <polyline
       points="410,138 394,138"
       id="polyline106"
       style="stroke:#d72823;stroke-opacity:1" />
    <polyline
       points="410,122 442,122 442,106 458,106 458,90 426,90 426,106"
       id="polyline108"
       style="stroke:#d72823;stroke-opacity:1" />
    <polyline
       points="426,90 426,74 410,74 410,10 458,10 458,26 474,26 474,10"
       id="polyline110"
       style="stroke:#d72823;stroke-opacity:1" />
    <polyline
       points="474,26 474,42"
       id="polyline112"
       style="stroke:#d72823;stroke-opacity:1" />
    <polyline
       points="410,26 394,26 394,74"
       id="polyline114"
       style="stroke:#d72823;stroke-opacity:1" />
    <polyline
       points="458,106 458,122"
       id="polyline116"
       style="stroke:#d72823;stroke-opacity:1" />
    <polyline
       points="346,122 346,138"
       id="polyline118"
       style="stroke:#d72823;stroke-opacity:1" />
    <polyline
       points="346,170 362,170 362,218 346,218 346,202 298,202 298,186 314,186"
       id="polyline120"
       style="stroke:#d72823;stroke-opacity:1" />
    <polyline
       points="570,218 538,218 538,186 506,186 506,202 522,202"
       id="polyline122"
       style="stroke:#d72823;stroke-opacity:1" />
    <polyline
       points="506,202 458,202 458,186 490,186 490,170 538,170 538,154"
       id="polyline124"
       style="stroke:#d72823;stroke-opacity:1" />
    <polyline
       points="474,186 474,170"
       id="polyline126"
       style="stroke:#d72823;stroke-opacity:1" />
    <polyline
       points="490,202 490,218"
       id="polyline128"
       style="stroke:#d72823;stroke-opacity:1" />
    <polyline
       points="538,186 570,186"
       id="polyline130"
       style="stroke:#d72823;stroke-opacity:1" />
    <polyline
       points="538,202 554,202"
       id="polyline132"
       style="stroke:#d72823;stroke-opacity:1" />
    <polyline
       points="570,218 586,218 586,234 714,234"
       id="polyline134"
       style="stroke:#d72823;stroke-opacity:1" />
    <polyline
       points="650,234 650,186 634,186 634,170 618,170 618,186 602,186 602,154 586,154"
       id="polyline136"
       style="stroke:#d72823;stroke-opacity:1" />
    <polyline
       points="602,154 634,154 634,122"
       id="polyline138"
       style="stroke:#d72823;stroke-opacity:1" />
    <polyline
       points="602,234 602,202 618,202 618,218 634,218 634,202"
       id="polyline140"
       style="stroke:#d72823;stroke-opacity:1" />
    <polyline
       points="490,154 490,138 506,138 506,122 490,122 490,106 522,106 522,90"
       id="polyline142"
       style="stroke:#d72823;stroke-opacity:1" />
    <polyline
       points="522,106 522,122"
       id="polyline144"
       style="stroke:#d72823;stroke-opacity:1" />
    <polyline
       points="570,10 490,10 490,58 474,58 474,74 490,74"
       id="polyline146"
       style="stroke:#d72823;stroke-opacity:1" />
    <polyline
       points="474,74 442,74 442,58 426,58 426,26 442,26 442,42 458,42 458,58"
       id="polyline148"
       style="stroke:#d72823;stroke-opacity:1" />
    <polyline
       points="490,26 506,26 506,42 522,42 522,26"
       id="polyline150"
       style="stroke:#d72823;stroke-opacity:1" />
    <polyline
       points="586,10 586,58 634,58 634,26 650,26"
       id="polyline152"
       style="stroke:#d72823;stroke-opacity:1" />
    <polyline
       points="618,58 618,26 602,26 602,42"
       id="polyline154"
       style="stroke:#d72823;stroke-opacity:1" />
    <polyline
       points="586,58 570,58 570,42 554,42"
       id="polyline156"
       style="stroke:#d72823;stroke-opacity:1" />
    <polyline
       points="666,42 650,42 650,74 666,74 666,58"
       id="polyline158"
       style="stroke:#d72823;stroke-opacity:1" />
    <polyline
       points="698,26 682,26 682,10 698,10"
       id="polyline160"
       style="stroke:#d72823;stroke-opacity:1" />
    <polyline
       points="714,26 714,10 730,10"
       id="polyline162"
       style="stroke:#d72823;stroke-opacity:1" />
    <polyline
       points="730,42 714,42"
       id="polyline164"
       style="stroke:#d72823;stroke-opacity:1" />
    <polyline
       points="762,10 746,10 746,26"
       id="polyline166"
       style="stroke:#d72823;stroke-opacity:1" />
    <polyline
       points="794,10 794,42 826,42 826,74 842,74 842,90 858,90 858,106 874,106 874,122 842,122 842,106 810,106 810,122 826,122 826,138 842,138 842,154 826,154 826,170 858,170 858,138 874,138 874,170 890,170 890,202 1018,202 1018,170"
       id="polyline168"
       style="stroke:#d72823;stroke-opacity:1" />
    <polyline
       points="1002,202 1002,218 986,218 986,234 890,234"
       id="polyline170"
       style="stroke:#d72823;stroke-opacity:1" />
    <polyline
       points="938,234 938,218 970,218"
       id="polyline172"
       style="stroke:#d72823;stroke-opacity:1" />
    <polyline
       points="1002,202 1002,170 986,170 986,186 970,186 970,170 954,170 954,154 938,154 938,186 954,186"
       id="polyline174"
       style="stroke:#d72823;stroke-opacity:1" />
    <polyline
       points="938,186 906,186 906,170 922,170 922,138 906,138 906,122 954,122 954,106 986,106 986,74 970,74 970,58 938,58 938,42 906,42 906,74 938,74 938,90 954,90 954,74"
       id="polyline176"
       style="stroke:#d72823;stroke-opacity:1" />
    <polyline
       points="922,74 922,58"
       id="polyline178"
       style="stroke:#d72823;stroke-opacity:1" />
    <polyline
       points="906,74 890,74 890,58 842,58"
       id="polyline180"
       style="stroke:#d72823;stroke-opacity:1" />
    <polyline
       points="858,58 858,42 842,42 842,10 826,10 826,26 810,26 810,10"
       id="polyline182"
       style="stroke:#d72823;stroke-opacity:1" />
    <polyline
       points="842,10 858,10 858,26 874,26 874,42 890,42 890,26 922,26 922,10 938,10 938,26"
       id="polyline184"
       style="stroke:#d72823;stroke-opacity:1" />
    <polyline
       points="906,26 906,10 874,10"
       id="polyline186"
       style="stroke:#d72823;stroke-opacity:1" />
    <polyline
       points="874,58 874,90 922,90 922,106 938,106"
       id="polyline188"
       style="stroke:#d72823;stroke-opacity:1" />
    <polyline
       points="922,106 890,106 890,154 906,154"
       id="polyline190"
       style="stroke:#d72823;stroke-opacity:1" />
    <polyline
       points="874,74 858,74"
       id="polyline192"
       style="stroke:#d72823;stroke-opacity:1" />
    <polyline
       points="938,42 954,42 954,10 970,10 970,42 986,42 986,10 1002,10 1002,26 1018,26 1018,10 1050,10 1050,26 1082,26 1082,42 1050,42"
       id="polyline194"
       style="stroke:#d72823;stroke-opacity:1" />
    <polyline
       points="1066,42 1066,90 1082,90 1082,58 1114,58 1114,74 1098,74 1098,106 1082,106 1082,122 1098,122"
       id="polyline196"
       style="stroke:#d72823;stroke-opacity:1" />
    <polyline
       points="1098,90 1114,90 1114,106 1146,106 1146,74 1130,74 1130,90"
       id="polyline198"
       style="stroke:#d72823;stroke-opacity:1" />
    <polyline
       points="1066,26 1066,10 1098,10 1098,42 1114,42 1114,10 1130,10 1130,58 1146,58 1146,42 1162,42 1162,90 1210,90 1210,106 1242,106"
       id="polyline200"
       style="stroke:#d72823;stroke-opacity:1" />
    <polyline
       points="1226,106 1226,122 1290,122 1290,154 1274,154 1274,186 1290,186 1290,170 1306,170 1306,90 1370,90 1370,138 1322,138 1322,154 1338,154 1338,170 1322,170 1322,186 1354,186 1354,170 1370,170 1370,186 1402,186"
       id="polyline202"
       style="stroke:#d72823;stroke-opacity:1" />
    <polyline
       points="1386,186 1386,202 1338,202 1338,218 1354,218 1354,234 1322,234"
       id="polyline204"
       style="stroke:#d72823;stroke-opacity:1" />
    <polyline
       points="1338,218 1322,218 1322,202"
       id="polyline206"
       style="stroke:#d72823;stroke-opacity:1" />
    <polyline
       points="1370,202 1370,234 1418,234 1418,218 1402,218 1402,202 1418,202 1418,186 1434,186 1434,202 1466,202 1466,218 1434,218 1434,234"
       id="polyline208"
       style="stroke:#d72823;stroke-opacity:1" />
    <polyline
       points="1450,218 1450,234 1482,234 1482,218 1498,218 1498,186 1482,186 1482,170 1514,170 1514,106 1498,106 1498,90 1514,90"
       id="polyline210"
       style="stroke:#d72823;stroke-opacity:1" />
    <polyline
       points="1514,106 1530,106 1530,74 1498,74 1498,10 1514,10 1514,58 1530,58 1530,42 1546,42 1546,58 1562,58 1562,26 1530,26 1530,10 1594,10 1594,42 1578,42 1578,58 1594,58 1594,202 1578,202"
       id="polyline212"
       style="stroke:#d72823;stroke-opacity:1" />
    <polyline
       points="1594,154 1578,154 1578,138 1562,138 1562,154 1530,154 1530,170 1578,170 1578,186 1514,186 1514,202 1562,202 1562,218 1594,218 1594,234 1546,234 1546,218 1514,218"
       id="polyline214"
       style="stroke:#d72823;stroke-opacity:1" />
    <polyline
       points="1530,218 1530,234 1498,234"
       id="polyline216"
       style="stroke:#d72823;stroke-opacity:1" />
    <polyline
       points="1546,154 1546,138 1530,138 1530,122 1578,122 1578,106 1546,106"
       id="polyline218"
       style="stroke:#d72823;stroke-opacity:1" />
    <polyline
       points="1578,42 1578,26"
       id="polyline220"
       style="stroke:#d72823;stroke-opacity:1" />
    <polyline
       points="1562,58 1562,74 1578,74 1578,90 1546,90 1546,74"
       id="polyline222"
       style="stroke:#d72823;stroke-opacity:1" />
    <polyline
       points="1498,202 1482,202"
       id="polyline224"
       style="stroke:#d72823;stroke-opacity:1" />
    <polyline
       points="1386,234 1386,218"
       id="polyline226"
       style="stroke:#d72823;stroke-opacity:1" />
    <polyline
       points="1322,186 1306,186 1306,234 1290,234 1290,202 1226,202 1226,234 1178,234 1178,218 1162,218 1162,234"
       id="polyline228"
       style="stroke:#d72823;stroke-opacity:1" />
    <polyline
       points="1162,218 1162,202 1146,202 1146,186 1162,186 1162,170 1178,170 1178,202"
       id="polyline230"
       style="stroke:#d72823;stroke-opacity:1" />
    <polyline
       points="1226,218 1194,218 1194,170 1226,170 1226,186 1242,186 1242,154 1258,154 1258,138 1274,138"
       id="polyline232"
       style="stroke:#d72823;stroke-opacity:1" />
    <polyline
       points="1242,170 1258,170 1258,186"
       id="polyline234"
       style="stroke:#d72823;stroke-opacity:1" />
    <polyline
       points="1226,186 1210,186 1210,202"
       id="polyline236"
       style="stroke:#d72823;stroke-opacity:1" />
    <polyline
       points="1242,202 1242,234 1258,234 1258,218 1274,218 1274,234"
       id="polyline238"
       style="stroke:#d72823;stroke-opacity:1" />
    <polyline
       points="1354,138 1354,154 1402,154 1402,170 1434,170 1434,154 1418,154 1418,138 1482,138 1482,90 1466,90"
       id="polyline240"
       style="stroke:#d72823;stroke-opacity:1" />
    <polyline
       points="1482,122 1498,122 1498,154 1466,154 1466,186 1450,186 1450,154"
       id="polyline242"
       style="stroke:#d72823;stroke-opacity:1" />
    <polyline
       points="1450,138 1450,122 1466,122 1466,106 1450,106 1450,90 1434,90 1434,106 1418,106 1418,74 1482,74 1482,58 1466,58"
       id="polyline244"
       style="stroke:#d72823;stroke-opacity:1" />
    <polyline
       points="1450,74 1450,42 1482,42 1482,10 1466,10 1466,26 1450,26 1450,10"
       id="polyline246"
       style="stroke:#d72823;stroke-opacity:1" />
    <polyline
       points="1418,90 1402,90 1402,106 1386,106 1386,90"
       id="polyline248"
       style="stroke:#d72823;stroke-opacity:1" />
    <polyline
       points="1434,138 1434,122 1386,122 1386,138 1402,138"
       id="polyline250"
       style="stroke:#d72823;stroke-opacity:1" />
    <polyline
       points="1386,154 1386,170"
       id="polyline252"
       style="stroke:#d72823;stroke-opacity:1" />
    <polyline
       points="1354,90 1354,74 1402,74 1402,58 1354,58 1354,10 1258,10 1258,26 1242,26 1242,10 1226,10"
       id="polyline254"
       style="stroke:#d72823;stroke-opacity:1" />
    <polyline
       points="1322,10 1322,42 1274,42 1274,74 1338,74 1338,58 1290,58"
       id="polyline256"
       style="stroke:#d72823;stroke-opacity:1" />
    <polyline
       points="1290,74 1290,106 1258,106 1258,90 1226,90 1226,58 1194,58 1194,74 1210,74"
       id="polyline258"
       style="stroke:#d72823;stroke-opacity:1" />
    <polyline
       points="1226,58 1258,58 1258,42 1242,42"
       id="polyline260"
       style="stroke:#d72823;stroke-opacity:1" />
    <polyline
       points="1242,58 1242,74 1258,74"
       id="polyline262"
       style="stroke:#d72823;stroke-opacity:1" />
    <polyline
       points="1274,106 1274,90"
       id="polyline264"
       style="stroke:#d72823;stroke-opacity:1" />
    <polyline
       points="1306,42 1306,26 1274,26"
       id="polyline266"
       style="stroke:#d72823;stroke-opacity:1" />
    <polyline
       points="1322,26 1338,26 1338,42"
       id="polyline268"
       style="stroke:#d72823;stroke-opacity:1" />
    <polyline
       points="1386,58 1386,26 1370,26 1370,10 1402,10 1402,26 1418,26 1418,10 1434,10 1434,58 1418,58 1418,42 1402,42"
       id="polyline270"
       style="stroke:#d72823;stroke-opacity:1" />
    <polyline
       points="1386,42 1370,42"
       id="polyline272"
       style="stroke:#d72823;stroke-opacity:1" />
    <polyline
       points="1306,106 1322,106 1322,122 1354,122 1354,106 1338,106"
       id="polyline274"
       style="stroke:#d72823;stroke-opacity:1" />
    <polyline
       points="1242,122 1242,138 1226,138 1226,154 1194,154 1194,122 1210,122 1210,138"
       id="polyline276"
       style="stroke:#d72823;stroke-opacity:1" />
    <polyline
       points="1210,106 1162,106 1162,122 1178,122 1178,138 1130,138 1130,170 1098,170 1098,154 1114,154 1114,122 1146,122"
       id="polyline278"
       style="stroke:#d72823;stroke-opacity:1" />
    <polyline
       points="1114,138 1050,138 1050,122 1066,122 1066,106 1018,106 1018,122 1034,122 1034,154 1082,154 1082,170 1034,170 1034,202"
       id="polyline280"
       style="stroke:#d72823;stroke-opacity:1" />
    <polyline
       points="1034,186 1050,186 1050,202 1082,202 1082,218 1098,218 1098,234 1146,234 1146,218"
       id="polyline282"
       style="stroke:#d72823;stroke-opacity:1" />
    <polyline
       points="1098,234 1066,234 1066,218 1050,218 1050,234 1034,234 1034,218 1018,218 1018,234 1002,234"
       id="polyline284"
       style="stroke:#d72823;stroke-opacity:1" />
    <polyline
       points="1114,170 1114,186 1130,186 1130,218 1114,218 1114,202 1098,202"
       id="polyline286"
       style="stroke:#d72823;stroke-opacity:1" />
    <polyline
       points="1114,186 1066,186"
       id="polyline288"
       style="stroke:#d72823;stroke-opacity:1" />
    <polyline
       points="1146,138 1146,170"
       id="polyline290"
       style="stroke:#d72823;stroke-opacity:1" />
    <polyline
       points="1146,154 1178,154"
       id="polyline292"
       style="stroke:#d72823;stroke-opacity:1" />
    <polyline
       points="1178,90 1178,42"
       id="polyline294"
       style="stroke:#d72823;stroke-opacity:1" />
    <polyline
       points="1130,26 1162,26 1162,10 1178,10 1178,26 1194,26 1194,42 1226,42 1226,26 1210,26 1210,10 1194,10"
       id="polyline296"
       style="stroke:#d72823;stroke-opacity:1" />
    <polyline
       points="1146,26 1146,10"
       id="polyline298"
       style="stroke:#d72823;stroke-opacity:1" />
    <polyline
       points="1050,26 1034,26"
       id="polyline300"
       style="stroke:#d72823;stroke-opacity:1" />
    <polyline
       points="970,106 970,90"
       id="polyline302"
       style="stroke:#d72823;stroke-opacity:1" />
    <polyline
       points="938,122 938,138 954,138"
       id="polyline304"
       style="stroke:#d72823;stroke-opacity:1" />
    <polyline
       points="986,170 986,154 970,154 970,122 1002,122 1002,90 1050,90 1050,58 1034,58 1034,74 1002,74"
       id="polyline306"
       style="stroke:#d72823;stroke-opacity:1" />
    <polyline
       points="1034,58 1034,42 1002,42"
       id="polyline308"
       style="stroke:#d72823;stroke-opacity:1" />
    <polyline
       points="1018,42 1018,58 986,58"
       id="polyline310"
       style="stroke:#d72823;stroke-opacity:1" />
    <polyline
       points="986,122 986,138 1018,138 1018,154 1002,154"
       id="polyline312"
       style="stroke:#d72823;stroke-opacity:1" />
    <polyline
       points="922,202 922,218 874,218 874,234 858,234 858,186 874,186 874,202"
       id="polyline314"
       style="stroke:#d72823;stroke-opacity:1" />
    <polyline
       points="858,202 842,202 842,186 810,186 810,138"
       id="polyline316"
       style="stroke:#d72823;stroke-opacity:1" />
    <polyline
       points="810,170 762,170 762,186 794,186"
       id="polyline318"
       style="stroke:#d72823;stroke-opacity:1" />
    <polyline
       points="810,106 810,58"
       id="polyline320"
       style="stroke:#d72823;stroke-opacity:1" />
    <polyline
       points="810,90 794,90"
       id="polyline322"
       style="stroke:#d72823;stroke-opacity:1" />
    <polyline
       points="826,106 826,90"
       id="polyline324"
       style="stroke:#d72823;stroke-opacity:1" />
  </g>
</svg>
